<svg width="506" height="506" viewBox="0 0 506 506" fill="none" xmlns="http://www.w3.org/2000/svg">
    <rect width="506" height="506" fill="url(#paint0_linear_378_1657)" />
    <path
        d="M322.018 256.48C323.346 183.07 251.296 82.2817 251.296 82.2817C251.296 82.2817 183.347 183.459 183.347 256.48C183.347 376.726 252.561 422.218 252.561 422.218C252.561 422.218 319.844 376.726 322.018 256.48Z"
        fill="#E0E7FF" fill-opacity="0.7" />
    <path
        d="M389 218.178C389 168.215 366.35 127.58 366.35 127.58C366.35 127.58 230.453 195.529 230.453 331.426C230.453 367.896 253.102 422.025 253.102 422.025C253.102 422.025 389 354.076 389 218.178Z"
        fill="white" fill-opacity="0.4" />
    <path
        d="M116.383 218.178C116.383 168.215 139.033 127.58 139.033 127.58C139.033 127.58 274.93 195.529 274.93 331.426C274.93 367.896 252.28 422.025 252.28 422.025C252.28 422.025 116.383 354.076 116.383 218.178Z"
        fill="white" fill-opacity="0.4" />
    <defs>
        <linearGradient id="paint0_linear_378_1657" x1="-1.81009e-06" y1="6.5" x2="506" y2="506"
            gradientUnits="userSpaceOnUse">
            <stop stop-color="#4F46E5" />
            <stop offset="1" stop-color="#4338CA" />
        </linearGradient>
    </defs>
</svg>